<?xml version="1.0" encoding="iso-8859-1"?>
<!-- Generator: Adobe Illustrator 19.0.0, SVG Export Plug-In . SVG Version: 6.00 Build 0)  -->
<svg version="1.1" id="Layer_1" xmlns="http://www.w3.org/2000/svg" xmlns:xlink="http://www.w3.org/1999/xlink" x="0px" y="0px"
	 viewBox="0 0 511.999 511.999" style="enable-background:new 0 0 511.999 511.999;" xml:space="preserve">
<g>
	<g>
		<g>
			<path d="M419.139,350.309c0.025,0.077,0.075,0.237,0.157,0.495c0.829,2.614,1.368,4.314,1.693,5.338
				C420.38,354.222,419.291,350.789,419.139,350.309z"/>
			<path d="M420.989,356.143c0.203,0.642,0.351,1.108,0.395,1.245C421.347,357.273,421.228,356.898,420.989,356.143z"/>
			<path d="M419.296,350.805c-1.308-4.126-5.714-6.409-9.839-5.102c-4.125,1.308-6.41,5.714-5.102,9.839
				c4.843,15.273,7.298,31.228,7.298,47.419v19.3c0,13.399-10.752,24.299-23.968,24.299c-7.942,0-15.354-3.981-19.83-10.65
				c-1.456-2.168-3.895-3.47-6.507-3.47c-0.001,0-0.001,0-0.001,0c-2.611,0-5.051,1.301-6.507,3.469
				c-4.477,6.669-11.892,10.651-19.832,10.651c-7.942,0-15.354-3.981-19.83-10.65c-1.455-2.168-3.894-3.47-6.507-3.47
				c-0.001,0-0.001,0-0.001,0c-2.611,0-5.051,1.301-6.507,3.469c-4.477,6.669-11.892,10.651-19.832,10.651
				c-7.942,0-15.354-3.981-19.83-10.65c-1.454-2.169-3.894-3.47-6.507-3.47c-2.612,0-5.052,1.301-6.507,3.47
				c-4.475,6.669-11.888,10.65-19.83,10.65c-7.941,0-15.355-3.982-19.832-10.651c-1.456-2.168-3.895-3.469-6.508-3.469
				c-2.611,0-5.051,1.302-6.507,3.47c-4.475,6.669-11.888,10.65-19.83,10.65c-7.941,0-15.355-3.982-19.832-10.651
				c-1.456-2.168-3.894-3.469-6.507-3.469c-2.611,0-5.051,1.302-6.507,3.47c-4.475,6.669-11.888,10.65-19.829,10.65
				c-13.216,0-23.968-10.9-23.968-24.299v-19.3c0-75.041,52.989-137.888,123.382-152.845h64.512
				c44.172,9.369,82.692,37.708,104.734,78.568c2.054,3.809,6.81,5.231,10.617,3.177c3.81-2.054,5.232-6.809,3.177-10.618
				c-20.653-38.284-54.463-66.565-94.065-80.492c1.484-2.641,2.339-5.681,2.339-8.92v-2.653c0-3.132-0.794-6.08-2.187-8.66
				l13.265-13.322c3.054-3.068,3.044-8.029-0.023-11.083c-3.069-3.054-8.031-3.044-11.083,0.024l-15,15.063
				c-1.06-0.192-2.145-0.307-3.259-0.307h-10.831l-21.173-21.247c-3.023-3.033-8.079-3.033-11.102,0l-21.173,21.247h-10.831
				c-1.114,0-2.199,0.116-3.259,0.307l-24.804-24.914c-7.654-7.68-11.869-17.892-11.869-28.755s4.215-21.075,11.87-28.756
				c7.643-7.673,17.805-11.898,28.614-11.898c1.868,0,3.743,0.128,5.571,0.378c4.282,0.588,8.24-2.412,8.828-6.7
				s-2.413-8.24-6.7-8.828c-2.532-0.347-5.122-0.523-7.7-0.523c-1.961,0-3.906,0.106-5.831,0.304V79.474
				c12.653-4.017,25.983-6.107,39.635-6.107c15.975,0,31.509,2.868,46.035,8.335v19.807c-1.925-0.198-3.869-0.304-5.831-0.304
				c-13.758,0-26.761,4.929-37.005,13.954c-1.216-1.071-2.475-2.089-3.768-3.044c-3.482-2.572-8.388-1.836-10.96,1.647
				c-2.572,3.481-1.835,8.387,1.646,10.96c1.652,1.22,3.233,2.585,4.697,4.055c5.304,6.183,11.454,6.091,16.773,0
				c7.646-7.673,17.809-11.898,28.619-11.898c10.806,0,20.968,4.226,28.616,11.897c7.653,7.684,11.868,17.896,11.868,28.757
				c0,6.836-1.704,13.573-4.929,19.483c-2.072,3.799-0.674,8.56,3.126,10.633c1.192,0.65,2.477,0.958,3.746,0.958
				c2.775,0,5.464-1.477,6.887-4.086c4.476-8.206,6.843-17.539,6.843-26.99c0-12.914-4.319-25.162-12.251-35.106v-18.349
				c2.915,2.459,5.747,5.044,8.471,7.777c1.531,1.537,3.541,2.305,5.552,2.305c2.001,0,4.002-0.762,5.532-2.286
				c3.067-3.055,3.074-8.016,0.019-11.082c-6.103-6.124-12.656-11.63-19.573-16.508V68.856c0-7.272-5.908-13.189-13.171-13.189
				H315.2c-6.009,0-11.08,4.056-12.655,9.577c-11.398-3.817-23.305-6.229-35.512-7.137V43.165c0-4.328-3.508-7.837-7.837-7.837
				c-5.384,0-9.766-4.408-9.766-9.827c0-5.419,4.38-9.826,9.766-9.826c5.385,0,9.766,4.408,9.766,9.826
				c0,4.328,3.508,7.837,7.837,7.837c4.329,0,7.837-3.509,7.837-7.837C284.637,11.44,273.225,0,259.199,0
				c-14.026,0-25.439,11.44-25.439,25.5c0,11.32,7.398,20.942,17.602,24.263v8.01c-12.394,0.385-24.522,2.31-36.167,5.679
				c-2.067-4.582-6.663-7.783-12-7.783h-11.734c-7.263,0-13.171,5.916-13.171,13.189v11.166
				c-9.301,5.854-18.019,12.784-25.973,20.766c-3.055,3.066-3.047,8.028,0.019,11.082c3.067,3.055,8.029,3.046,11.083-0.02
				c4.678-4.694,9.652-8.978,14.871-12.857v23.431c-7.933,9.942-12.251,22.188-12.251,35.105c0,15.039,5.839,29.181,16.437,39.816
				l23.069,23.171c-1.393,2.58-2.187,5.529-2.187,8.66v2.653c0,2.51,0.51,4.904,1.429,7.083
				C135.257,260.812,84.671,326.064,84.671,402.96v69.067c0,22.041,17.783,39.973,39.641,39.973c9.83,0,19.163-3.661,26.338-10.096
				c7.175,6.434,16.508,10.096,26.338,10.096c9.83,0,19.163-3.661,26.338-10.096c7.175,6.434,16.508,10.096,26.338,10.096
				c9.83,0,19.162-3.66,26.337-10.096c7.174,6.434,16.506,10.096,26.337,10.096c9.829,0,19.162-3.661,26.338-10.096
				c7.174,6.434,16.507,10.096,26.338,10.096c9.829,0,19.162-3.661,26.338-10.096c7.174,6.434,16.507,10.096,26.338,10.096
				c21.858,0,39.641-17.932,39.641-39.973V402.96C427.327,385.16,424.625,367.612,419.296,350.805z M281.608,226.565h15.146
				c1.416,0,2.612,1.196,2.612,2.612v2.653c0,1.416-1.196,2.612-2.612,2.612h-22.996L281.608,226.565z M259.199,206.278
				l10.249,10.285L259.2,226.847l-10.249-10.285L259.199,206.278z M219.031,229.177c0-1.416,1.196-2.612,2.612-2.612h15.146
				l7.852,7.878h-22.998c-1.416,0-2.612-1.196-2.612-2.612V229.177z M317.707,71.34h6.728v37.488
				c-2.171-1.271-4.415-2.401-6.728-3.364V71.34z M193.962,71.34h6.728v34.124c-2.314,0.961-4.557,2.092-6.728,3.364V71.34z
				 M387.686,496.327c-7.942,0-15.354-3.981-19.83-10.65c-1.456-2.168-3.895-3.47-6.507-3.47c-0.001,0-0.001,0-0.001,0
				c-2.611,0-5.051,1.301-6.507,3.469c-4.475,6.67-11.89,10.651-19.831,10.651c-7.942,0-15.354-3.981-19.83-10.65
				c-1.455-2.168-3.894-3.47-6.507-3.47c-0.001,0-0.001,0-0.001,0c-2.611,0-5.051,1.301-6.507,3.469
				c-4.476,6.67-11.89,10.651-19.831,10.651c-7.942,0-15.354-3.981-19.83-10.65c-1.455-2.169-3.894-3.47-6.507-3.47
				c-2.612,0-5.052,1.301-6.507,3.47c-4.476,6.669-11.889,10.65-19.83,10.65s-15.355-3.981-19.832-10.651
				c-1.456-2.168-3.895-3.469-6.508-3.469c-2.611,0-5.051,1.302-6.507,3.47c-4.475,6.669-11.888,10.65-19.829,10.65
				s-15.355-3.981-19.832-10.651c-1.456-2.168-3.894-3.469-6.507-3.469c-2.611,0-5.051,1.302-6.507,3.47
				c-4.476,6.669-11.889,10.65-19.83,10.65c-13.216,0-23.968-10.9-23.968-24.299v-17.956c6.661,5.116,14.967,8.162,23.968,8.162
				c9.83,0,19.163-3.661,26.338-10.096c7.175,6.434,16.508,10.096,26.338,10.096c9.83,0,19.162-3.661,26.338-10.096
				c7.175,6.434,16.508,10.096,26.338,10.096c9.83,0,19.162-3.66,26.337-10.096c7.174,6.434,16.506,10.096,26.337,10.096
				c9.829,0,19.162-3.661,26.338-10.096c7.175,6.434,16.507,10.096,26.338,10.096c9.829,0,19.162-3.661,26.338-10.096
				c7.174,6.434,16.507,10.096,26.338,10.096c9,0,17.307-3.046,23.968-8.162v17.956h0
				C411.654,485.426,400.902,496.327,387.686,496.327z"/>
			<path d="M421.383,357.387C421.4,357.439,421.399,357.438,421.383,357.387L421.383,357.387z"/>
		</g>
	</g>
</g>
<g>
</g>
<g>
</g>
<g>
</g>
<g>
</g>
<g>
</g>
<g>
</g>
<g>
</g>
<g>
</g>
<g>
</g>
<g>
</g>
<g>
</g>
<g>
</g>
<g>
</g>
<g>
</g>
<g>
</g>
</svg>
