<?xml version="1.0" encoding="iso-8859-1"?>
<!-- Generator: Adobe Illustrator 16.0.0, SVG Export Plug-In . SVG Version: 6.00 Build 0)  -->
<!DOCTYPE svg PUBLIC "-//W3C//DTD SVG 1.1//EN" "http://www.w3.org/Graphics/SVG/1.1/DTD/svg11.dtd">
<svg version="1.1" id="Capa_1" xmlns="http://www.w3.org/2000/svg" xmlns:xlink="http://www.w3.org/1999/xlink" x="0px" y="0px"
	 width="235.504px" height="235.504px" viewBox="0 0 235.504 235.504" style="enable-background:new 0 0 235.504 235.504;"
	 xml:space="preserve">
<g>
	<g>
		<path d="M173.987,45.182c1.074-0.713,2.172-1.356,3.182-2.158c8.067-6.374,13.08-14.367,13.4-21.37
			c0.185-3.875-1.058-7.205-3.635-9.644c-6.944-6.598-22.806-3.896-34.872,5.656c-4.088,3.236-7.366,6.871-9.666,10.592
			c-2.3-3.715-5.606-7.364-9.662-10.583c-12.096-9.552-28.004-12.285-34.913-5.657c-2.567,2.431-3.805,5.769-3.632,9.644
			c0.328,7.003,5.348,14.996,13.409,21.37c1.012,0.801,2.12,1.444,3.17,2.158h-61.5v29.677h12.922v41.844H3.759
			c-2.088,0-3.759,1.687-3.759,3.763v102.883c0,2.08,1.685,3.771,3.759,3.771h58.43h68.201h23.988h13.577h54.629v-68.206v-23.988
			V74.859h12.92V45.182H173.987L173.987,45.182z M227.975,67.331h-5.406h-68.198h-23.997h-68.2h-5.4V52.718h171.193v14.613H227.975z
			 M215.055,219.602H171.71v-60.673h43.345V219.602z M137.904,219.602h-3.751h-3.763H69.717h-3.761h-3.759H7.52v-68.263
			l54.677,36.147l3.759,2.492l3.761,2.484l14.052,9.298c0.629,0.408,1.369,0.621,2.09,0.621s1.453-0.213,2.082-0.621l42.449-28.072
			l3.763-2.493l3.763-2.484l8.933-5.902l3.764-2.493l2.096-1.37l1.671-1.122l4.039-2.649l5.703-3.759h0.063v3.759v3.764v60.664
			h-9.786h-3.755h-3.771H137.904L137.904,219.602z M171.703,142.463h43.34v8.928h-43.34V142.463z M146.848,116.703h-8.944V74.859
			h8.944V116.703z M69.717,74.859h60.673v41.844H69.717V74.859z M69.717,124.232h60.673h3.763h3.763h8.94h3.756h3.767h9.798v10.7
			v3.759v3.61l-0.248,0.161l-4.132,2.753l-5.402,3.57l-3.767,2.493l-0.16,0.111l-3.603,2.377l-2.108,1.406l-5.69,3.755l-1.15,0.745
			l-3.755,2.497l-3.755,2.493l-44.546,29.438l-16.134-10.656l-3.761-2.492l-3.761-2.477L11.924,145.22l-4.396-2.905v-18.078h54.676
			h3.761L69.717,124.232L69.717,124.232z M215.055,134.933H171.71v-14.475c0-2.076-1.703-3.764-3.755-3.764h-13.577V74.851h60.677
			V134.933z M156.723,23.572c6.135-4.853,13.517-7.851,19.259-7.851c1.8,0,4.261,0.307,5.771,1.735
			c0.967,0.916,1.387,2.174,1.303,3.845c-0.204,4.711-4.368,10.92-10.563,15.828c-8.86,7.011-21.159,9.732-25.03,6.083
			c-0.949-0.916-1.387-2.174-1.303-3.837C146.379,34.657,150.527,28.463,156.723,23.572z M101.695,21.302
			c-0.083-1.671,0.345-2.936,1.318-3.845c1.176-1.138,3.17-1.735,5.745-1.735c5.763,0,13.157,2.998,19.299,7.851
			c6.195,4.897,10.312,11.084,10.552,15.787c0.061,1.671-0.368,2.93-1.334,3.837c-1.52,1.453-4.004,1.762-5.799,1.762
			c-5.747,0-13.114-3.01-19.218-7.829C106.061,32.222,101.905,26.013,101.695,21.302z"/>
		<path d="M59.985,145.216c-0.292,1.142-0.487,2.328-0.487,3.57c0,1.603,0.256,3.134,0.721,4.593c0.329,1.503,1.06,3.05,1.984,4.608
			c0.184,0.312,0.487,0.629,0.687,0.941c0.894,1.358,1.881,2.705,3.082,4.04c1.181,1.342,2.435,2.66,3.761,3.919
			c7.339,6.929,16.142,12.479,16.142,12.479s16.266-10.312,22.952-20.43c0.828-1.283,1.445-2.525,1.916-3.764
			c0.212-0.601,0.613-1.198,0.741-1.787c0.194-0.621,0.194-1.318,0.312-1.979c0.166-0.866,0.423-1.695,0.423-2.613
			c0-1.242-0.196-2.425-0.487-3.574c-0.235-0.974-0.629-1.855-1.042-2.741c-0.659-1.398-1.477-2.653-2.515-3.775
			c-1.074-1.149-2.258-2.176-3.665-2.949c-0.919-0.513-2.098-0.501-3.132-0.806c-1.318-0.4-2.553-1.042-4.029-1.042
			c-1.641,0-3.108,0.545-4.568,1.042c-2.376,0.773-4.466,1.992-6.137,3.755h-1.491c-1.683-1.775-3.783-2.981-6.133-3.755
			c-1.477-0.488-2.943-1.042-4.584-1.042c-1.477,0-2.699,0.642-4.043,1.042h-0.617v0.152c-0.826,0.285-1.792,0.241-2.531,0.653
			c-0.457,0.244-0.815,0.613-1.23,0.91c-1.475,1.029-2.757,2.271-3.761,3.734C61.177,141.85,60.434,143.444,59.985,145.216z"/>
	</g>
</g>
<g>
</g>
<g>
</g>
<g>
</g>
<g>
</g>
<g>
</g>
<g>
</g>
<g>
</g>
<g>
</g>
<g>
</g>
<g>
</g>
<g>
</g>
<g>
</g>
<g>
</g>
<g>
</g>
<g>
</g>
</svg>
