<svg xmlns="http://www.w3.org/2000/svg" xmlns:xlink="http://www.w3.org/1999/xlink" viewBox="0 0 209.18 23.6"><defs><style>.cls-1{fill-rule:evenodd;fill:url(#GradientFill_1);}</style><linearGradient id="GradientFill_1" x1="102.3" y1="-12.89" x2="113.52" y2="77.51" gradientUnits="userSpaceOnUse"><stop offset="0" stop-color="#af782d"/><stop offset="0.16" stop-color="#eab462"/><stop offset="0.34" stop-color="#af782d"/><stop offset="0.57" stop-color="#e1c06c"/><stop offset="0.81" stop-color="#e1c06c"/><stop offset="1" stop-color="#af782d"/></linearGradient></defs><title>Asset 3</title><g id="Layer_2" data-name="Layer 2"><g id="OBJECTS"><path class="cls-1" d="M49.58,11.66c-7.39,4.89-14.43,9.55-21.15,9.55-15,0-21.24-10.84-23.33-15.91a3.05,3.05,0,1,0-2.26.78C5.1,11.61,11.92,23.6,28.43,23.6c6.16,0,12.25-3.32,18.53-7.36a25.3,25.3,0,0,0,7.15,4.94A27.63,27.63,0,0,0,65.79,23.6C72,23.6,78,20.28,84.33,16.24a25.16,25.16,0,0,0,7.15,4.94,27.63,27.63,0,0,0,11.68,2.42c6.16,0,12.25-3.32,18.53-7.36a25.16,25.16,0,0,0,8.06,5.33,27.81,27.81,0,0,0,10.78,2c7.44,0,14.77-4.85,22.47-10,12.13-8,25.22-16.68,40.17-6.32a2.84,2.84,0,0,0-.09.72,3.06,3.06,0,1,0,1.53-2.63c-13.14-9.23-24.71-5-35.43,1.44-14-11.07-26.12-6.76-37.37,0-14-11.07-26.12-6.76-37.37,0-17.09-13.57-31.52-4-44.86,4.8ZM55.1,19A22.82,22.82,0,0,1,49,14.9l1.89-1.25C63.36,5.41,76.82-3.49,92.27,8.2c-1.8,1.13-3.57,2.3-5.32,3.46-7.39,4.89-14.43,9.55-21.16,9.55A25.2,25.2,0,0,1,55.1,19Zm37.37,0a22.51,22.51,0,0,1-6.08-4.1l1.88-1.25c12.45-8.24,25.91-17.14,41.36-5.45-1.79,1.13-3.56,2.3-5.31,3.46-7.39,4.89-14.43,9.55-21.16,9.55A25.2,25.2,0,0,1,92.47,19Zm38.18.36a22.89,22.89,0,0,1-6.9-4.46l1.89-1.25C138.09,5.41,151.55-3.49,167,8.2c-1.79,1.13-3.56,2.3-5.32,3.46-7.39,4.89-14.43,9.55-21.15,9.55A25.6,25.6,0,0,1,130.65,19.36Z"/></g></g></svg>